<?xml version="1.0" encoding="utf-8"?>
<!-- Generator: Adobe Illustrator 26.3.1, SVG Export Plug-In . SVG Version: 6.00 Build 0)  -->
<svg version="1.1" id="Ebene_1" xmlns="http://www.w3.org/2000/svg" xmlns:xlink="http://www.w3.org/1999/xlink" x="0px" y="0px"
	 viewBox="0 0 70 66" style="enable-background:new 0 0 70 66;" xml:space="preserve">
<style type="text/css">
	.st0{fill:#6B6B6B;}
</style>
<g>
	<path class="st0" d="M69.98,64.46c-0.01-0.06,0-0.12,0-0.18c-1.26-6.88-4.62-10.99-8.99-10.99l-0.97,0
		c-3.95-0.01-7.07-0.01-10.22-4.26c-0.28-0.38-0.74-0.6-1.23-0.6c-0.31,0-0.61,0.09-0.86,0.25c-0.68,0.45-0.85,1.33-0.37,1.97
		c3.74,5.05,7.97,5.48,11.98,5.48c0.29,0,0.58,0,0.86,0l0.81,0c2.23,0,4.2,2.24,5.42,6.16c0.06,0.21,0.02,0.43-0.12,0.61
		c-0.14,0.17-0.36,0.28-0.59,0.28H4.3c-0.23,0-0.45-0.1-0.59-0.28c-0.14-0.17-0.18-0.4-0.12-0.61c1.21-3.91,3.19-6.16,5.42-6.16
		l0.81,0c0.28,0,0.56,0,0.84,0c4.19,0,8.59-0.42,12.33-5.47c0.47-0.64,0.31-1.52-0.37-1.97c-0.25-0.17-0.55-0.25-0.86-0.25
		c-0.49,0-0.95,0.23-1.23,0.61c-2.93,3.95-6.06,4.26-9.85,4.26c-0.27,0-1.66-0.01-1.66-0.01c-4.38,0-7.74,4.11-8.99,10.99
		c0.01,0.06,0.01,0.12,0,0.18c0,0.04-0.01,0.08-0.02,0.12c0.01,0.05,0.03,0.1,0.03,0.16c0.01,0.11,0.03,0.19,0.06,0.27
		c0.03,0.08,0.06,0.15,0.12,0.25c0.06,0.09,0.1,0.16,0.15,0.22c0.05,0.06,0.12,0.12,0.21,0.19c0.09,0.07,0.16,0.11,0.23,0.15
		c0.07,0.03,0.15,0.06,0.28,0.1c0.06,0.02,0.13,0.04,0.2,0.07C1.35,65.99,1.42,66,1.48,66c0.01,0,67.01,0,67.01,0
		c0.01,0,0.01,0,0.02,0c0.07,0,0.14,0,0.2-0.01c0.07-0.03,0.13-0.06,0.2-0.08c0.13-0.04,0.21-0.06,0.28-0.1
		c0.07-0.04,0.14-0.08,0.23-0.15c0.09-0.07,0.16-0.13,0.21-0.18c0.05-0.06,0.1-0.12,0.16-0.22c0.05-0.09,0.09-0.16,0.12-0.25
		c0.03-0.07,0.04-0.16,0.05-0.26c0.01-0.05,0.02-0.1,0.03-0.16C69.99,64.55,69.98,64.51,69.98,64.46z"/>
	<path class="st0" d="M14.89,36.52h4.27c0.57,0.01,1.94,0.13,2.23,1.03c0.03,0.08,0.06,0.14,0.09,0.18
		C24.54,44.5,29.99,49.15,35,49.15c0.89,0,1.8-0.14,2.72-0.42c0.79-0.24,1.22-1.04,0.97-1.78c-0.2-0.59-0.78-0.98-1.43-0.98
		c-0.16,0-0.31,0.02-0.46,0.07c-0.62,0.19-1.22,0.28-1.8,0.28c-5.18,0-13.02-8.07-13.02-20.24c0-12.26,7.08-14.83,13.02-14.83
		c4.43,0,7.79,1.37,9.98,4.08c0.28,0.35,0.72,0.56,1.19,0.56c0.33,0,0.65-0.1,0.91-0.29c0.32-0.23,0.52-0.56,0.58-0.94
		c0.05-0.37-0.05-0.75-0.3-1.05C44.61,10.22,40.34,8.42,35,8.42c-8.3,0-13.79,4.29-15.46,12.08c-0.07,0.32-0.37,0.55-0.72,0.55
		h-1.69c-0.4,0-0.73-0.31-0.73-0.69c0-5.99,1.5-10.32,4.58-13.22c3.08-2.9,7.67-4.32,14.03-4.32c6.36,0,10.95,1.41,14.03,4.32
		c3.08,2.9,4.58,7.23,4.58,13.22c0,0.38-0.33,0.69-0.73,0.69h-2.23c-0.08,0-1.19-0.02-1.34-0.02c-0.05,0-0.11,0-0.18,0.01
		c-0.82,0.1-1.41,0.8-1.31,1.58c0.14,1.08,0.21,2.24,0.21,3.45c0,2.94-0.49,5.83-1.45,8.58c-0.13,0.36-0.1,0.74,0.08,1.08
		c0.18,0.34,0.49,0.59,0.87,0.71c0.15,0.05,0.31,0.07,0.43,0.07c0,0,0.47,0,0.57,0h4.34c0.41,0,0.73,0.31,0.73,0.69
		c0,1.54-1.33,2.8-2.97,2.8H41.7c-0.41,0-0.73-0.31-0.73-0.69v-2.1c0-0.78-0.67-1.42-1.5-1.42c-0.83,0-1.5,0.64-1.5,1.42v4.21
		c0,0.78,0.67,1.42,1.5,1.42h11.17c3.29,0,5.97-2.52,5.97-5.63v-0.39c0-0.29,0.2-0.55,0.49-0.65c2.38-0.8,3.98-2.92,3.98-5.28v-4.21
		c0-2.33-1.55-4.4-3.88-5.23c-0.02-0.01-0.02-0.02-0.04-0.02c-0.68-0.28-0.58-1.89-0.58-1.89c-0.15-6.26-1.97-11.1-5.45-14.38
		C47.5,1.74,42.07,0,35,0c-7.07,0-12.5,1.74-16.13,5.16s-5.48,8.54-5.48,15.19c0,0.14-0.02,0.28-0.05,0.42
		c-0.03,0.15-0.08,0.29-0.16,0.42c-0.09,0.14-0.23,0.2-0.38,0.26c-0.35,0.12-0.69,0.28-1.01,0.46c-0.62,0.36-1.18,0.82-1.62,1.36
		c-0.44,0.54-0.78,1.15-0.99,1.81c-0.17,0.52-0.25,1.06-0.25,1.61v4.21C8.92,34,11.6,36.52,14.89,36.52z M58.08,26.68v4.21
		c0,1.54-1.33,2.8-2.97,2.8h-4.19c-0.22,0-0.43-0.1-0.57-0.26c-0.14-0.16-0.19-0.38-0.14-0.58c0.54-2.24,0.82-4.52,0.82-6.77
		c0-0.51-0.02-1.02-0.04-1.47c-0.01-0.19,0.06-0.37,0.2-0.51c0.14-0.14,0.33-0.21,0.53-0.21h3.4
		C56.74,23.89,58.08,25.14,58.08,26.68z M11.92,26.68c0-1.54,1.33-2.8,2.97-2.8h3.4c0.2,0,0.39,0.08,0.53,0.21
		c0.14,0.14,0.21,0.32,0.2,0.51l-0.01,0.17c-0.02,0.44-0.04,0.86-0.04,1.3c0,2.26,0.27,4.54,0.81,6.77c0.05,0.21,0,0.42-0.14,0.59
		c-0.14,0.16-0.35,0.26-0.57,0.26h-4.18c-1.64,0-2.97-1.25-2.97-2.8V26.68z"/>
</g>
</svg>
