<?xml version="1.0" encoding="utf-8"?>
<!-- Generator: Adobe Illustrator 26.3.1, SVG Export Plug-In . SVG Version: 6.00 Build 0)  -->
<svg version="1.1" id="Ebene_2" xmlns="http://www.w3.org/2000/svg" xmlns:xlink="http://www.w3.org/1999/xlink" x="0px" y="0px"
	 viewBox="0 0 66 66" style="enable-background:new 0 0 66 66;" xml:space="preserve">
<style type="text/css">
	.st0{fill:#030304;}
</style>
<path class="st0" d="M63.3,64.27L46.32,47.32c5.26-5,8.56-12.05,8.56-19.88C54.88,12.29,42.6,0,27.44,0C12.29,0,0,12.29,0,27.44
	C0,42.6,12.29,54.88,27.44,54.88c6.57,0,12.59-2.31,17.32-6.16l17.07,17.03L63.3,64.27z M1.33,27.44
	c0-14.42,11.69-26.11,26.11-26.11c14.42,0,26.11,11.69,26.11,26.11S41.86,53.55,27.44,53.55C13.02,53.55,1.33,41.86,1.33,27.44z"/>
</svg>
