<?xml version="1.0" encoding="utf-8"?>
<!-- Generator: Adobe Illustrator 26.3.1, SVG Export Plug-In . SVG Version: 6.00 Build 0)  -->
<svg version="1.1" id="Ebene_1" xmlns="http://www.w3.org/2000/svg" xmlns:xlink="http://www.w3.org/1999/xlink" x="0px" y="0px"
	 viewBox="0 0 66 66" style="enable-background:new 0 0 66 66;" xml:space="preserve">
<style type="text/css">
	.st0{fill:none;stroke:#6B6B6B;stroke-width:1.9367;stroke-linecap:round;stroke-linejoin:round;}
</style>
<g id="g1390">
	<path id="path1619" class="st0" d="M64.93,32.97c0,17.65-14.31,31.96-31.96,31.96S1.02,50.62,1.02,32.97S15.32,1.02,32.97,1.02
		S64.93,15.32,64.93,32.97z"/>
	<path id="path1621" class="st0" d="M50.5,32.97c0,17.65-7.85,31.96-17.52,31.96c-9.68,0-17.52-14.31-17.52-31.96
		S23.29,1.02,32.97,1.02C42.65,1.02,50.5,15.32,50.5,32.97L50.5,32.97z"/>
	<path id="path1625" class="st0" d="M1.02,32.97h63.91"/>
	<path id="path1627" class="st0" d="M32.97,1.02v63.91"/>
	<path id="path1647" class="st0" d="M6.17,15.45h53.52"/>
	<path id="path1649" class="st0" d="M6.17,50.5h53.52"/>
</g>
</svg>
